PathFileType	4	(X/Y/Z)	/home/filipkon/dev/OpenSimRT/data/gait1992/experimental_data/task_resampled.trc
DataRate	CameraRate	NumFrames	NumMarkers	Units	OrigDataRate	OrigDataStartFrame	OrigNumFrames
100	100	6	41	mm	100	62	251
Frame#	Time	R.ASIS			L.ASIS			V.Sacral			R.Thigh.Upper			R.Thigh.Front			R.Thigh.Rear			L.Thigh.Upper			L.Thigh.Front			L.Thigh.Rear			R.Shank.Upper			R.Shank.Front			R.Shank.Rear			L.Shank.Upper			L.Shank.Front			L.Shank.Rear			R.Heel			R.Midfoot.Sup			R.Midfoot.Lat			R.Toe.Tip			L.Heel			L.Midfoot.Sup			L.Midfoot.Lat			L.Toe.Tip			Sternum			R.Acromium			L.Acromium			R.Bicep			L.Bicep			R.Elbow			L.Elbow			R.Wrist.Med			R.Wrist.Lat			L.Wrist.Med			L.Wrist.Lat			R.Toe.Lat			R.Toe.Med			L.Toe.Lat			L.Toe.Med			R.Temple			L.Temple			Top.Head			
		X1	Y1	Z1	X2	Y2	Z2	X3	Y3	Z3	X4	Y4	Z4	X5	Y5	Z5	X6	Y6	Z6	X7	Y7	Z7	X8	Y8	Z8	X9	Y9	Z9	X10	Y10	Z10	X11	Y11	Z11	X12	Y12	Z12	X13	Y13	Z13	X14	Y14	Z14	X15	Y15	Z15	X16	Y16	Z16	X17	Y17	Z17	X18	Y18	Z18	X19	Y19	Z19	X20	Y20	Z20	X21	Y21	Z21	X22	Y22	Z22	X23	Y23	Z23	X24	Y24	Z24	X25	Y25	Z25	X26	Y26	Z26	X27	Y27	Z27	X28	Y28	Z28	X29	Y29	Z29	X30	Y30	Z30	X31	Y31	Z31	X32	Y32	Z32	X33	Y33	Z33	X34	Y34	Z34	X35	Y35	Z35	X36	Y36	Z36	X37	Y37	Z37	X38	Y38	Z38	X39	Y39	Z39	X40	Y40	Z40	X41	Y41	Z41	

63	0.62	607.592486875	1048.05589625	117.837865625	607.789444375	1035.42838875	-143.252345	409.551854375	1045.8906825	-1.49317625	651.24765125	740.648935625	173.18599625	720.083466875	697.155521875	74.5505225	685.562880625	623.9096500000001	168.758130625	470.64844	756.9807956249999	-189.58947125	553.616380625	694.1902293749999	-132.90597125	438.08773125	651.9728699999999	-168.242368125	689.4328262500001	445.5593925	160.528038125	777.144274375	442.68999875	114.4600875	735.1196331250001	372.29032375	172.550153125	348.942300625	449.31255125	-160.127240625	384.266530625	387.041045	-111.92827375	314.988025	416.06719625	-165.247573125	799.164714375	56.50917875	96.668555	926.7453131250001	126.1832475	75.52888625	921.22139625	103.66163875	180.4971825	1063.8233075	162.462760625	126.3765875	148.30815375	106.21215125	-63.32179375	316.219973125	70.79467875	-62.569330625	298.4639775	67.811380625	-134.5470075	416.87856	44.090255625	-63.85092125	640.6360225	1347.244735625	-15.10264875	536.689741875	1439.820588125	190.74462	587.4599943750001	1463.429121875	-223.17471625	513.90084	1243.248554375	236.844603125	628.957188125	1230.384186875	-251.567555625	453.76205875	1147.74143625	261.859888125	597.983881875	1126.289564375	-292.724589375	583.801105	911.566303125	271.558251875	537.148540625	898.1275375	315.576554375	780.2626124999999	966.16976125	-216.63763375	749.53622	931.745710625	-276.2729125	1010.053325625	119.26039125	201.22862875	1019.13076875	137.86090375	91.9604075	350.2209725	36.88006375	-141.320830625	372.283470625	46.26437375	-40.506756875	714.7679493750001	1566.519543125	72.78113875	731.346580625	1570.565476875	-65.51436750000001	730.028806875	1743.851303125	13.488761875	
64	0.63	608.594343125	1046.47218375	118.744084375	608.246025625	1034.67415125	-141.844395	410.657335625	1044.1261575	2.06113625	655.39388875	740.653854375	173.28408375	725.0337231250001	698.570128125	74.84719749999999	690.399949375	623.67665	168.335899375	469.82254	756.216714375	-188.60180875	552.979749375	693.3940606250001	-132.73260875	437.24136875	651.55997	-168.183861875	692.8417137499999	445.2802675	160.923531875	780.4598556249999	440.38376125	113.2548125	737.5750768749999	371.00963625	171.748496875	346.728269375	449.81858875	-160.630809375	379.491499375	386.762095	-111.30228625	311.597275	416.98108375	-165.398116875	793.182395625	56.76034125	95.350105	922.9837568749999	121.7008725	74.07957374999999	916.23978375	99.83500125	179.1154575	1060.5862325	153.420629375	124.6881125	138.33126625	109.71728875	-64.12500625	305.626616875	69.43494124999999	-67.747499375	287.6886025	68.164649375	-135.1068325	405.19496	43.999274375	-63.93625875	641.0399975	1345.432754375	-12.93881125	537.1362481250001	1437.703581875	193.65322	587.505275625	1462.170728125	-220.40820375	514.62864	1240.962635625	239.003346875	628.0193818749999	1229.791843125	-249.701974375	455.25002125	1145.14332375	264.154981875	596.840888125	1126.185045625	-291.981620625	586.565655	909.5656468750001	272.686658125	539.691609375	895.5920625	317.559435625	777.8479875	962.83609875	-217.05044625	746.9366200000001	929.0177793749999	-276.3606875	1004.332044375	111.28042875	199.58239125	1014.87673125	129.52461625	90.73693249999999	338.6100475	36.90047625	-141.540299375	361.274239375	45.82668625	-40.754313125	715.3585806249999	1565.695186875	75.86850124999999	731.4868493749999	1569.363233125	-62.1139925	730.091863125	1742.436046875	16.541468125	
65	0.64	609.8801047058823	1045.303925882353	120.3480170588235	608.7384929411766	1033.733674117647	-140.4940694117647	411.9648994117647	1042.682995294118	5.461155882352941	658.6491317647059	740.1566582352941	173.9058541176471	729.63933	699.6081588235294	75.64480588235294	694.8310358823529	623.7064752941177	168.3900358823529	469.5718670588236	755.607744117647	-187.5261958823529	552.4578700000001	692.3458576470589	-132.2145152941176	436.8357494117647	651.3183023529411	-167.9732623529412	696.1777152941177	445.1503135294118	160.7131552941177	784.2192129411765	438.6320817647059	111.3155329411765	738.7677805882353	369.8588970588235	171.0285947058824	344.7821335294117	450.25418	-160.9768464705882	375.7394576470588	386.0552452941176	-111.7659141176471	309.0200217647059	417.9923747058824	-165.5368782352941	786.0478241176471	57.30275470588236	94.21915411764707	917.98268	116.86722	72.76352529411764	910.1338564705883	95.78925705882352	177.8366211764706	1056.378293529412	143.5353082352941	123.1468917647059	129.2486488235294	113.6890735294118	-65.01575941176471	295.8643070588235	69.78939	-69.28367235294118	277.5235358823529	68.52662411764706	-135.6346170588235	393.99058	43.93809588235294	-63.96280705882353	641.3781076470589	1344.178927647059	-10.59986411764706	537.6514035294118	1435.915872352941	196.3081523529412	588.0085594117647	1461.779189411765	-218.0274288235294	515.701675882353	1239.131034117647	241.2812988235294	626.9391135294118	1229.14633	-247.5568905882353	456.8581176470588	1142.863954705882	266.4481941176471	595.8973035294117	1125.783138823529	-290.4734847058824	589.1600000000001	907.7358382352942	274.3248494117647	542.4002582352941	893.6717505882353	319.1737841176471	774.8704276470588	959.7018811764706	-217.1171082352941	743.6557676470588	926.7913994117647	-276.7693188235294	997.5211794117647	102.9264547058823	198.5148164705882	1009.564077058824	120.5601317647059	89.66918588235295	327.4831611764706	36.91584411764705	-141.7021882352941	350.8109641176471	45.35581411764706	-40.88267764705883	715.5601958823529	1564.588860588235	78.82753058823529	731.3511217647059	1568.473129411765	-59.08996529411765	729.9991670588236	1741.440821764706	19.75101117647059	
66	0.65	611.28754	1044.31372	122.25097	609.24634	1032.71338	-139.16844	413.35907	1041.37756	8.79505	661.52252	739.44427	174.75206	734.09723	700.4848	76.6571	699.08813	623.84894	168.64833	469.56772	755.06525	-186.41289	551.98517	691.1896400000001	-131.54868	436.61902	651.15002	-167.69748	699.48248	445.08429	160.24312	788.16876	437.11807	109.06168	739.41931	368.76385	170.34373	342.95081	450.65958	-161.25537	372.42584	385.16501	-112.69652	306.79141	419.04541	-165.67059	778.41943	57.96999	93.16856	912.45038	111.88302	71.50458999999999	903.54608	91.64961	176.60188	1051.75427	133.28862	121.66878	120.54929	117.86085	-65.94403	286.45816	70.87849	-69.25899	267.62003	68.89233	-136.14867	382.99158	43.88969	-63.96416	641.68799	1343.16431	-8.18587	538.19598	1434.26929	198.85437	588.70813	1461.75916	-215.81197	516.92267	1237.49414	243.61034	625.79779	1228.47803	-245.29202	458.5177	1140.72119	268.7406	595.03918	1125.25378	-288.63742	591.6814000000001	905.97925	276.18152	545.1798700000001	892.01508	320.63019	771.65161	956.65314	-217.03542	740.08295	924.77997	-277.31546	990.24335	94.41219	197.69524	1003.79773	111.32642	88.66818000000001	316.56372	36.92905	-141.8394	340.58167	44.87072	-40.95996	715.59509	1563.36169	81.73156	731.09711	1567.7168	-56.22723	729.8397200000001	1740.62561	23.02777	
67	0.66	612.8777164705883	1043.621008235294	123.60667	610.252734117647	1032.367415294118	-137.9109752941177	414.9351052941176	1040.562707058823	11.65406176470588	664.6181141176471	740.1309523529411	175.2074894117647	737.9348711764706	702.0308235294117	78.03451176470588	702.1217947058824	624.4793576470588	168.8359770588235	470.481325882353	754.70155	-185.1955252941177	552.8503229411765	690.6972282352941	-131.4774211764706	437.3344788235294	650.860214117647	-166.8315094117647	701.40868	445.6909958823529	159.7502082352941	789.5167776470588	436.1777170588235	108.5560329411765	740.4841570588235	368.4826264705882	168.9776594117647	342.1035335294118	451.3375329411764	-161.3787935294118	370.493145882353	385.09981	-112.3306141176471	305.7358276470588	420.2570629411765	-165.8378723529412	769.7824888235294	58.98649	92.50106588235295	905.4829976470588	106.9302082352941	70.49141941176471	895.8812505882353	87.62612764705882	175.5696094117647	1045.841111176471	123.0222258823529	120.4049388235294	112.6942723529412	123.1084735294118	-67.03397705882354	277.6074364705883	74.12134882352942	-64.74980176470588	258.0246888235294	69.35724764705883	-136.5954170588235	371.9070741176471	43.82262529411765	-63.89330705882353	642.6630782352942	1342.98185117647	-5.433405294117646	538.9745035294118	1432.904613529412	202.0950052941176	588.904124117647	1461.330189411765	-212.2859405882353	518.6541288235294	1235.705451764706	246.1040752941176	626.4117311764705	1228.500288823529	-243.4176435294118	460.4081	1138.951460588235	271.0848	594.5604505882353	1125.312809411765	-286.8081435294118	594.2902588235294	905.0029382352941	278.3062964705882	547.9527347058823	890.6593094117648	322.1868370588235	768.4775688235294	953.2554929411765	-217.4279258823529	735.5648735294118	922.529281764706	-278.0091247058824	984.0641147058824	86.00385470588235	197.2390341176471	996.7972829411765	102.4140905882353	87.78964470588235	305.7117611764706	36.93050882352941	-141.8270117647059	330.4576052941176	44.3522494117647	-40.85023647058824	716.0305605882353	1562.727860588235	84.37114235294118	731.3767570588235	1567.455205882353	-53.25015352941177	729.8960552941177	1740.486521764706	26.30473470588235	
68	0.67	614.251435	1043.18806625	125.033365	611.1957512500001	1032.137898125	-136.471375625	416.565930625	1039.90187875	14.38893375	667.2283062500001	740.685604375	175.99414375	741.59307375	703.6888712499999	79.59456937500001	704.89978	625.166835625	168.999379375	471.742864375	754.359345	-183.9577725	554.09421375	690.2013625	-131.2724175	438.248008125	650.5151575	-165.899528125	703.8116381250001	446.615345625	159.39866375	791.3549506249999	435.29338625	107.946624375	741.6071487500001	368.562150625	168.216738125	341.768486875	451.93289875	-161.429551875	368.99233375	385.01527125	-112.126051875	305.1344025	421.519056875	-166.049648125	760.81136	60.0788375	91.958893125	898.0642356249999	102.088019375	69.57071875	887.858231875	83.692038125	174.62493	1039.444851875	112.91639375	119.22572125	105.045410625	128.863789375	-68.170636875	268.7518825	77.63459125	-59.82244	248.38953875	69.936623125	-137.018804375	360.606196875	43.730543125	-63.798115625	643.534949375	1342.88223625	-2.62948	539.607349375	1431.585235625	205.39564125	588.928480625	1461.1675125	-208.62612375	520.2274737499999	1234.115495	248.71415875	626.752500625	1228.597558125	-241.2659025	462.404184375	1137.284205	273.472265625	593.620669375	1125.735904375	-284.830825	597.0492443749999	903.934095	280.3567175	550.6998962499999	889.216284375	323.88483	764.89533375	949.8344000000001	-217.748829375	730.91521	920.3815368750001	-278.513453125	976.832595	78.16562937499999	196.585855625	989.339216875	93.765809375	86.93474875000001	294.703499375	36.943925625	-141.75323625	320.186846875	43.848685625	-40.6888225	716.618321875	1562.33641	87.368285	731.72753125	1567.35094125	-50.16994500000001	730.195899375	1740.41985375	29.617501875	
